<svg width="16" height="16" viewBox="0 0 16 16" fill="none" xmlns="http://www.w3.org/2000/svg">
<path d="M5.3301 8C5.3301 6.53101 6.52888 5.3322 7.99785 5.3322C9.46681 5.3322 10.6656 6.53101 10.6656 8C10.6656 9.46899 9.46681 10.6678 7.99785 10.6678C6.52888 10.6678 5.3301 9.46899 5.3301 8Z" fill="white"/>
<path fill-rule="evenodd" clip-rule="evenodd" d="M15.9792 10.577C16.0013 9.87945 16.0006 9.1835 15.9996 8.48458C15.9997 8.3266 15.9997 8.16511 15.9997 8C15.9997 7.81281 15.9997 7.63027 15.9996 7.45223C16.0001 6.85181 15.9997 6.25348 15.9848 5.65433C15.936 3.38811 15.7265 2.06992 14.8281 1.17157C13.9285 0.271879 12.6077 0.0630933 10.3353 0.0146416C9.73914 5.18691e-05 9.14437 -0.000431553 8.54813 0.000143686C8.36993 4.65661e-10 8.18722 4.87489e-10 7.99985 4.87489e-10C7.81233 4.87489e-10 7.62946 4.80213e-10 7.45112 0.000144051C6.85122 -0.00043446 6.2534 5.33275e-05 5.65476 0.0148482C3.38825 0.0636853 2.06996 0.273152 1.17155 1.17157C0.271874 2.07127 0.0630917 3.39205 0.0146412 5.66451C5.18709e-05 6.26068 -0.000431543 6.85546 0.000143682 7.45171C1.30965e-10 7.62992 1.21785e-10 7.81263 1.21785e-10 8C1.21785e-10 8.1874 1.16413e-10 8.37013 0.000143743 8.54836C-0.000433494 9.14689 5.45894e-05 9.74424 0.0147876 10.3423C0.0635116 12.6106 0.272777 13.9296 1.17155 14.8284C2.07123 15.7281 3.392 15.9369 5.66443 15.9854C6.26057 15.9999 6.85531 16.0004 7.45152 15.9999C7.62974 16 7.81247 16 7.99985 16C8.18741 16 8.37031 16 8.54869 15.9999C9.14853 16.0004 9.74629 15.9999 10.3449 15.9852C12.6114 15.9363 13.9297 15.7269 14.8281 14.8284C15.6955 13.9611 15.9207 12.7024 15.9792 10.577ZM3.89315 8C3.89315 10.2715 5.72636 12.1048 7.99785 12.1048C10.2693 12.1048 12.1025 10.2715 12.1025 8C12.1025 5.72847 10.2693 3.89523 7.99785 3.89523C5.72636 3.89523 3.89315 5.72847 3.89315 8ZM11.312 3.72711C11.312 4.25747 11.7403 4.68576 12.2707 4.68576C12.3966 4.68592 12.5213 4.66123 12.6377 4.61311C12.7541 4.56499 12.8598 4.49438 12.9489 4.40533C13.0379 4.31628 13.1085 4.21054 13.1566 4.09416C13.2048 3.97778 13.2294 3.85305 13.2293 3.72711C13.2293 3.19675 12.801 2.76847 12.2707 2.76847C11.7403 2.76847 11.312 3.19675 11.312 3.72711Z" fill="white"/>
</svg>
