<svg width="87" height="44" viewBox="0 0 87 44" fill="none" xmlns="http://www.w3.org/2000/svg">
<path d="M0.261198 15.3631H4.20296C3.99645 16.1661 3.8932 17.0875 3.8932 18.1273C3.8932 18.8809 3.98459 19.6437 4.16737 20.4157C4.36842 21.1693 4.67001 21.8586 5.07212 22.4836C5.49251 23.0901 6.02257 23.5864 6.6623 23.9724C7.30203 24.3584 8.06056 24.5514 8.9379 24.5514C9.55935 24.5514 10.1351 24.4411 10.6652 24.2206C11.2135 24 11.6887 23.6967 12.0908 23.3107C12.493 22.9247 12.8037 22.4836 13.023 21.9873C13.2606 21.4726 13.3794 20.9304 13.3794 20.3606H9.34915V17.3001H16.9436V27.1432H13.7907L13.7084 25.3234C13.2698 26.0954 12.5661 26.702 11.5973 27.1432C10.6286 27.5659 9.51366 27.7773 8.25248 27.7773C6.9913 27.7773 5.84893 27.5108 4.82537 26.9777C3.82008 26.4263 2.95188 25.7002 2.22077 24.7996C1.50793 23.8805 0.959591 22.8328 0.575754 21.6564C0.191918 20.4617 0 19.2301 0 17.9618C0 17.0581 0.0870661 16.1918 0.261198 15.3631Z" fill="white"/>
<path fill-rule="evenodd" clip-rule="evenodd" d="M22.0487 26.9777C22.9078 27.327 23.8857 27.5016 24.9823 27.5016C26.0242 27.5016 26.9655 27.3362 27.8063 27.0053C28.6653 26.6561 29.3873 26.169 29.9722 25.544C30.5754 24.9191 31.0323 24.1746 31.3431 23.3107C31.6721 22.4284 31.8366 21.445 31.8366 20.3606C31.8366 19.2761 31.6721 18.2927 31.3431 17.4104C31.0323 16.5281 30.5754 15.7837 29.9722 15.1771C29.3873 14.5522 28.6745 14.0743 27.8337 13.7434C26.9929 13.3942 26.0425 13.2196 24.9823 13.2196C23.9039 13.2196 22.9352 13.3942 22.0762 13.7434C21.2354 14.0743 20.5134 14.5522 19.9102 15.1771C19.3071 15.8021 18.841 16.5557 18.512 17.438C18.2012 18.3203 18.0459 19.2945 18.0459 20.3606C18.0459 21.4083 18.2012 22.3733 18.512 23.2556C18.8227 24.1379 19.2705 24.8915 19.8554 25.5164C20.4586 26.1414 21.1897 26.6285 22.0487 26.9777ZM28.2449 20.3606C28.2449 23.1177 27.1574 24.4963 24.9823 24.4963C22.8073 24.4963 21.7197 23.1177 21.7197 20.3606C21.7197 17.6218 22.8073 16.2524 24.9823 16.2524C27.1574 16.2524 28.2449 17.6218 28.2449 20.3606Z" fill="white"/>
<path fill-rule="evenodd" clip-rule="evenodd" d="M39.7618 27.5016C38.6651 27.5016 37.6872 27.327 36.8281 26.9777C35.9691 26.6285 35.238 26.1414 34.6348 25.5164C34.0499 24.8915 33.6021 24.1379 33.2914 23.2556C32.9806 22.3733 32.8253 21.4083 32.8253 20.3606C32.8253 19.2945 32.9806 18.3203 33.2914 17.438C33.6204 16.5557 34.0865 15.8021 34.6896 15.1771C35.2928 14.5522 36.0148 14.0743 36.8556 13.7434C37.7146 13.3942 38.6834 13.2196 39.7618 13.2196C40.8219 13.2196 41.7723 13.3942 42.6131 13.7434C43.4539 14.0743 44.1667 14.5522 44.7516 15.1771C45.3548 15.7837 45.8117 16.5281 46.1225 17.4104C46.4515 18.2927 46.616 19.2761 46.616 20.3606C46.616 21.445 46.4515 22.4284 46.1225 23.3107C45.8117 24.1746 45.3548 24.9191 44.7516 25.544C44.1667 26.169 43.4448 26.6561 42.5857 27.0053C41.7449 27.3362 40.8036 27.5016 39.7618 27.5016ZM39.7618 24.4963C41.9368 24.4963 43.0244 23.1177 43.0244 20.3606C43.0244 17.6218 41.9368 16.2524 39.7618 16.2524C37.5867 16.2524 36.4991 17.6218 36.4991 20.3606C36.4991 23.1177 37.5867 24.4963 39.7618 24.4963Z" fill="white"/>
<path fill-rule="evenodd" clip-rule="evenodd" d="M57.228 25.4889L57.2554 27.1432H60.6825V8.61511H57.1732V15.3426C56.1679 13.9272 54.8336 13.2196 53.1703 13.2196C52.293 13.2196 51.507 13.3942 50.8125 13.7434C50.1362 14.0743 49.5604 14.5522 49.0852 15.1771C48.61 15.8021 48.2444 16.5465 47.9885 17.4104C47.7509 18.2559 47.6321 19.1934 47.6321 20.2227C47.6321 21.3623 47.7783 22.3825 48.0708 23.2831C48.3632 24.1838 48.7653 24.9466 49.2771 25.5716C49.7889 26.1965 50.4012 26.6744 51.1141 27.0053C51.8269 27.3362 52.6128 27.5016 53.4719 27.5016C55.1535 27.5016 56.4055 26.8307 57.228 25.4889ZM56.4329 23.5037C55.8663 24.2206 55.1535 24.579 54.2944 24.579C53.3988 24.579 52.6677 24.2022 52.1011 23.4486C51.5344 22.6766 51.2511 21.684 51.2511 20.4709C51.2511 17.6769 52.2747 16.28 54.3218 16.28C56.3141 16.28 57.3103 17.7505 57.3103 20.6914C57.3103 21.8494 57.0178 22.7869 56.4329 23.5037Z" fill="white"/>
<path d="M16.1211 43.6415V35.4252C16.1211 34.5981 15.9292 33.9272 15.5454 33.4125C15.1615 32.8978 14.6498 32.6405 14.01 32.6405C13.352 32.6405 12.8037 32.9162 12.365 33.4677C11.9446 34.0191 11.7344 34.7084 11.7344 35.5355V43.6415H8.17023V35.4804C8.17023 34.9289 8.13367 34.4786 8.06056 34.1294C7.98745 33.7801 7.8595 33.5044 7.67673 33.3022C7.51222 33.1 7.29289 32.9622 7.01872 32.8887C6.74455 32.7968 6.41555 32.7508 6.03171 32.7508C4.58776 32.7508 3.86578 33.6331 3.86578 35.3977V43.6415H0.301586V30.0764H3.64644V32.0615C4.10339 31.1608 4.65173 30.5451 5.29146 30.2142C5.93118 29.8834 6.69886 29.7179 7.59447 29.7179C8.05142 29.7179 8.45354 29.7547 8.80082 29.8282C9.16638 29.9017 9.48624 30.0304 9.76041 30.2142C10.0529 30.3797 10.327 30.6002 10.5829 30.8759C10.8388 31.1517 11.0947 31.4825 11.3506 31.8685C11.7161 31.1149 12.2005 30.5727 12.8037 30.2418C13.4069 29.8926 14.138 29.7179 14.997 29.7179C15.6733 29.7179 16.2948 29.8374 16.8614 30.0764C17.428 30.2969 17.9124 30.6186 18.3145 31.0414C18.7166 31.4457 19.0273 31.9237 19.2466 32.4751C19.4843 33.0265 19.6031 33.6147 19.6031 34.2397V43.6415H16.1211Z" fill="white"/>
<path fill-rule="evenodd" clip-rule="evenodd" d="M29.1964 42.4284C29.233 42.8879 29.3061 43.2923 29.4157 43.6415H32.7332V35.0668C32.7332 34.2213 32.6327 33.4677 32.4316 32.8059C32.2305 32.1258 31.9015 31.5652 31.4446 31.1241C31.0059 30.6646 30.4119 30.3153 29.6625 30.0764C28.9314 29.8374 28.0358 29.7179 26.9756 29.7179C25.8972 29.7179 24.9833 29.8374 24.2339 30.0764C23.4846 30.2969 22.8722 30.6186 22.397 31.0414C21.9401 31.4641 21.6019 31.9696 21.3826 32.5578C21.1815 33.146 21.0719 33.7893 21.0536 34.4878H24.371C24.4624 33.8812 24.6818 33.3941 25.029 33.0265C25.3946 32.6589 25.9886 32.4751 26.8111 32.4751C27.5057 32.4751 28.054 32.6038 28.4561 32.8611C28.8765 33.1 29.0867 33.4401 29.0867 33.8812C29.0867 34.3591 28.9314 34.7084 28.6206 34.9289C28.3099 35.1311 27.7068 35.2966 26.8111 35.4252C25.9155 35.5539 25.0839 35.7009 24.3162 35.8664C23.5668 36.0134 22.9179 36.2524 22.3696 36.5832C21.8213 36.9141 21.3917 37.3736 21.081 37.9618C20.7703 38.5316 20.6149 39.3036 20.6149 40.2778C20.6149 41.3807 20.9713 42.2813 21.6842 42.9798C22.4153 43.6599 23.5577 44 25.1113 44C26.0252 44 26.8294 43.8621 27.524 43.5864C28.2185 43.2923 28.776 42.9063 29.1964 42.4284ZM28.3739 37.438C28.7212 37.3277 28.9862 37.1806 29.169 36.9968L29.1416 38.4857C29.1416 38.8901 29.0502 39.2761 28.8674 39.6437C28.7029 39.9929 28.4744 40.3054 28.182 40.5811C27.9078 40.8384 27.5697 41.0498 27.1676 41.2152C26.7837 41.3623 26.3633 41.4358 25.9064 41.4358C24.7549 41.4358 24.1791 40.9303 24.1791 39.9194C24.1791 39.3312 24.371 38.8809 24.7549 38.5684C25.1387 38.2559 25.8424 37.9986 26.866 37.7964C27.524 37.6677 28.0266 37.5482 28.3739 37.438Z" fill="white"/>
<path d="M42.9413 43.6415V35.4252C42.9413 34.3775 42.7676 33.6698 42.4203 33.3022C42.0731 32.9346 41.479 32.7508 40.6382 32.7508C38.7922 32.7508 37.8691 33.7893 37.8691 35.8664V43.6415H34.3049V30.0764H37.7046V32.0615C38.125 31.2895 38.6825 30.7105 39.3771 30.3245C40.0716 29.9201 40.9672 29.7179 42.0639 29.7179C42.7036 29.7179 43.2977 29.819 43.846 30.0212C44.3943 30.205 44.8604 30.4899 45.2443 30.8759C45.6464 31.2619 45.9571 31.7398 46.1764 32.3097C46.4141 32.8611 46.5329 33.5044 46.5329 34.2397V43.6415H42.9413Z" fill="white"/>
<path d="M3.61809 0C1.80595 0 0.336914 1.47732 0.336914 3.29968V7.8376C0.336914 9.65996 1.80595 11.1373 3.61809 11.1373H12.7963L16.9494 15.3137L16.9492 3.29968C16.9492 1.47732 15.4801 0 13.668 0H3.61809Z" fill="white"/>
</svg>
