<svg width="180" height="91" viewBox="0 0 180 91" fill="none" xmlns="http://www.w3.org/2000/svg">
<path d="M0.54041 31.7738H8.69577C8.26852 33.4346 8.05489 35.3402 8.05489 37.4906C8.05489 39.0492 8.24397 40.6268 8.62214 42.2235C9.03812 43.7821 9.66208 45.2077 10.494 46.5002C11.3638 47.7547 12.4605 48.7811 13.7841 49.5794C15.1076 50.3777 16.677 50.7769 18.4922 50.7769C19.778 50.7769 20.9692 50.5488 22.0659 50.0926C23.2003 49.6364 24.1836 49.0092 25.0155 48.2109C25.8475 47.4125 26.4904 46.5002 26.9442 45.4738C27.4358 44.4093 27.6816 43.2879 27.6816 42.1094H19.3431V35.7799H35.0558V56.137H28.5325L28.3623 52.3735C27.4547 53.9702 25.9988 55.2247 23.9945 56.137C21.9902 57.0114 19.6834 57.4486 17.0741 57.4486C14.4648 57.4486 12.1012 56.8973 9.98353 55.7949C7.90362 54.6544 6.10735 53.1528 4.59469 51.2901C3.11985 49.3893 1.98536 47.2225 1.19122 44.7895C0.397072 42.3185 0 39.7715 0 37.1484C0 35.2793 0.180137 33.4877 0.54041 31.7738Z" fill="white"/>
<path fill-rule="evenodd" clip-rule="evenodd" d="M45.6181 55.7949C47.3954 56.5172 49.4186 56.8783 51.6876 56.8783C53.8431 56.8783 55.7907 56.5362 57.5302 55.8519C59.3076 55.1296 60.8014 54.1222 62.0115 52.8297C63.2594 51.5372 64.2048 49.9976 64.8477 48.2109C65.5284 46.3861 65.8687 44.3523 65.8687 42.1094C65.8687 39.8665 65.5284 37.8327 64.8477 36.008C64.2048 34.1832 63.2594 32.6436 62.0115 31.3891C60.8014 30.0966 59.3265 29.1082 57.587 28.4239C55.8474 27.7016 53.881 27.3405 51.6876 27.3405C49.4564 27.3405 47.4522 27.7016 45.6748 28.4239C43.9352 29.1082 42.4415 30.0966 41.1936 31.3891C39.9456 32.6816 38.9813 34.2403 38.3006 36.065C37.6577 37.8897 37.3363 39.9045 37.3363 42.1094C37.3363 44.2763 37.6577 46.2721 38.3006 48.0968C38.9435 49.9215 39.87 51.4802 41.0801 52.7727C42.3281 54.0652 43.8407 55.0726 45.6181 55.7949ZM58.4378 42.1094C58.4378 47.8117 56.1878 50.6628 51.6876 50.6628C47.1875 50.6628 44.9374 47.8117 44.9374 42.1094C44.9374 36.4452 47.1875 33.613 51.6876 33.613C56.1878 33.613 58.4378 36.4452 58.4378 42.1094Z" fill="white"/>
<path fill-rule="evenodd" clip-rule="evenodd" d="M82.2657 56.8783C79.9967 56.8783 77.9735 56.5172 76.1962 55.7949C74.4188 55.0726 72.9061 54.0652 71.6582 52.7727C70.4481 51.4802 69.5216 49.9215 68.8787 48.0968C68.2358 46.2721 67.9144 44.2763 67.9144 42.1094C67.9144 39.9045 68.2358 37.8897 68.8787 36.065C69.5594 34.2403 70.5237 32.6816 71.7717 31.3891C73.0196 30.0966 74.5133 29.1082 76.2529 28.4239C78.0303 27.7016 80.0345 27.3405 82.2657 27.3405C84.459 27.3405 86.4255 27.7016 88.1651 28.4239C89.9046 29.1082 91.3794 30.0966 92.5896 31.3891C93.8375 32.6436 94.7829 34.1832 95.4258 36.008C96.1065 37.8327 96.4468 39.8665 96.4468 42.1094C96.4468 44.3523 96.1065 46.3861 95.4258 48.2109C94.7829 49.9976 93.8375 51.5372 92.5896 52.8297C91.3794 54.1222 89.8857 55.1296 88.1083 55.8519C86.3688 56.5362 84.4212 56.8783 82.2657 56.8783ZM82.2657 50.6628C86.7658 50.6628 89.0159 47.8117 89.0159 42.1094C89.0159 36.4452 86.7658 33.613 82.2657 33.613C77.7655 33.613 75.5155 36.4452 75.5155 42.1094C75.5155 47.8117 77.7655 50.6628 82.2657 50.6628Z" fill="white"/>
<path fill-rule="evenodd" clip-rule="evenodd" d="M118.403 52.7157L118.46 56.137H125.55V17.8177H118.289V31.7313C116.209 28.8041 113.449 27.3405 110.008 27.3405C108.192 27.3405 106.566 27.7016 105.129 28.4239C103.73 29.1082 102.539 30.0966 101.556 31.3891C100.572 32.6816 99.816 34.2213 99.2866 36.008C98.795 37.7567 98.5492 39.6954 98.5492 41.8243C98.5492 44.1812 98.8517 46.2911 99.4568 48.1538C100.062 50.0166 100.894 51.5942 101.953 52.8867C103.012 54.1793 104.278 55.1676 105.753 55.8519C107.228 56.5362 108.854 56.8783 110.632 56.8783C114.111 56.8783 116.701 55.4908 118.403 52.7157ZM116.758 48.61C115.585 50.0926 114.111 50.8339 112.333 50.8339C110.48 50.8339 108.968 50.0546 107.795 48.496C106.623 46.8993 106.037 44.8465 106.037 42.3375C106.037 36.5592 108.155 33.67 112.39 33.67C116.512 33.67 118.573 36.7113 118.573 42.7937C118.573 45.1887 117.968 47.1274 116.758 48.61Z" fill="white"/>
<path d="M33.3541 90.2587V73.2659C33.3541 71.5552 32.957 70.1676 32.1628 69.1032C31.3687 68.0388 30.3098 67.5066 28.9863 67.5066C27.6249 67.5066 26.4904 68.0768 25.5828 69.2173C24.713 70.3577 24.2781 71.7833 24.2781 73.494V90.2587H16.9039V73.3799C16.9039 72.2395 16.8283 71.3081 16.677 70.5858C16.5258 69.8635 16.261 69.2933 15.8829 68.8751C15.5425 68.457 15.0887 68.1718 14.5215 68.0198C13.9542 67.8297 13.2736 67.7347 12.4794 67.7347C9.49191 67.7347 7.99816 69.5594 7.99816 73.2089V90.2587H0.62397V62.2035H7.54437V66.3091C8.48978 64.4464 9.62427 63.1728 10.9478 62.4886C12.2714 61.8043 13.8597 61.4622 15.7127 61.4622C16.6581 61.4622 17.4901 61.5382 18.2086 61.6902C18.9649 61.8423 19.6267 62.1084 20.1939 62.4886C20.799 62.8307 21.3663 63.2869 21.8957 63.8571C22.4251 64.4273 22.9545 65.1116 23.484 65.9099C24.2403 64.3513 25.2424 63.2299 26.4904 62.5456C27.7383 61.8233 29.251 61.4622 31.0283 61.4622C32.4275 61.4622 33.7133 61.7093 34.8856 62.2035C36.0579 62.6596 37.0601 63.3249 37.892 64.1993C38.724 65.0356 39.3669 66.024 39.8206 67.1644C40.3123 68.3049 40.5581 69.5214 40.5581 70.8139V90.2587H33.3541Z" fill="white"/>
<path fill-rule="evenodd" clip-rule="evenodd" d="M60.4064 87.7497C60.482 88.7001 60.6333 89.5364 60.8601 90.2587H67.7238V72.5246C67.7238 70.7759 67.5158 69.2173 67.0999 67.8487C66.6839 66.4422 66.0032 65.2827 65.0578 64.3703C64.1502 63.4199 62.9211 62.6977 61.3707 62.2035C59.858 61.7093 58.005 61.4622 55.8117 61.4622C53.5805 61.4622 51.6897 61.7093 50.1392 62.2035C48.5887 62.6596 47.3219 63.3249 46.3387 64.1993C45.3932 65.0736 44.6936 66.119 44.2398 67.3355C43.8239 68.552 43.597 69.8825 43.5592 71.3271H50.4228C50.6119 70.0726 51.0657 69.0652 51.7842 68.3049C52.5405 67.5446 53.7696 67.1644 55.4713 67.1644C56.9083 67.1644 58.0428 67.4305 58.8748 67.9628C59.7446 68.457 60.1795 69.1602 60.1795 70.0726C60.1795 71.061 59.858 71.7833 59.2151 72.2395C58.5723 72.6576 57.3243 72.9998 55.4713 73.2659C53.6183 73.532 51.8977 73.8361 50.3094 74.1783C48.7589 74.4824 47.4164 74.9766 46.2819 75.6608C45.1474 76.3451 44.2588 77.2955 43.6159 78.512C42.973 79.6905 42.6516 81.2871 42.6516 83.3019C42.6516 85.5828 43.389 87.4456 44.8638 88.8901C46.3765 90.2967 48.74 91 51.9544 91C53.8452 91 55.5091 90.7149 56.9462 90.1446C58.3832 89.5364 59.5366 88.7381 60.4064 87.7497ZM58.7046 77.4286C59.4231 77.2005 59.9715 76.8963 60.3496 76.5162L60.2929 79.5954C60.2929 80.4318 60.1038 81.2301 59.7257 81.9904C59.3853 82.7127 58.9126 83.3589 58.3075 83.9292C57.7403 84.4614 57.0407 84.8985 56.2087 85.2407C55.4146 85.5448 54.5448 85.6969 53.5994 85.6969C51.217 85.6969 50.0258 84.6515 50.0258 82.5606C50.0258 81.3441 50.4228 80.4128 51.217 79.7665C52.0111 79.1202 53.467 78.588 55.5848 78.1699C56.9462 77.9037 57.9861 77.6566 58.7046 77.4286Z" fill="white"/>
<path d="M88.844 90.2587V73.2659C88.844 71.099 88.4847 69.6354 87.7662 68.8751C87.0477 68.1148 85.8187 67.7347 84.0791 67.7347C80.2596 67.7347 78.3499 69.8825 78.3499 74.1783V90.2587H70.9757V62.2035H78.0096V66.3091C78.8794 64.7125 80.0328 63.515 81.4698 62.7167C82.9068 61.8803 84.7598 61.4622 87.0288 61.4622C88.3524 61.4622 89.5814 61.6712 90.7159 62.0894C91.8504 62.4696 92.8147 63.0588 93.6088 63.8571C94.4408 64.6554 95.0837 65.6438 95.5375 66.8223C96.0291 67.9628 96.2749 69.2933 96.2749 70.8139V90.2587H88.844Z" fill="white"/>
<path d="M7.4859 0C3.73664 0 0.697266 3.05536 0.697266 6.82434V16.2096C0.697266 19.9786 3.73665 23.0339 7.48591 23.0339H26.4753L35.0678 31.6716L35.0674 6.82433C35.0674 3.05536 32.028 0 28.2788 0H7.4859Z" fill="#F0AC87"/>
<path d="M106.696 65.826H108.879V68.6344H109.418C109.485 68.1402 109.622 67.7077 109.83 67.3371C110.038 66.9664 110.298 66.6576 110.61 66.4105C110.922 66.1539 111.281 65.9638 111.687 65.8402C112.094 65.7072 112.533 65.6407 113.006 65.6407C113.536 65.6407 114.022 65.7214 114.467 65.883C114.921 66.0446 115.313 66.2822 115.644 66.5958C115.975 66.9094 116.23 67.2991 116.41 67.7648C116.599 68.2305 116.693 68.7722 116.693 69.3899V69.675C116.693 70.3213 116.599 70.8915 116.41 71.3857C116.23 71.8704 115.975 72.2743 115.644 72.5975C115.313 72.9206 114.921 73.1629 114.467 73.3245C114.022 73.4861 113.536 73.5668 113.006 73.5668C112.533 73.5668 112.089 73.5051 111.673 73.3815C111.267 73.2485 110.907 73.0536 110.595 72.797C110.283 72.5404 110.023 72.2173 109.815 71.8276C109.617 71.4285 109.485 70.9628 109.418 70.4306H108.879V73.3815H106.696V65.826ZM113.006 71.7421C113.479 71.7421 113.838 71.5568 114.084 71.1861C114.33 70.8155 114.453 70.3118 114.453 69.675V69.3899C114.453 68.8197 114.33 68.3588 114.084 68.0071C113.838 67.646 113.479 67.4654 113.006 67.4654C112.533 67.4654 112.174 67.646 111.928 68.0071C111.683 68.3588 111.56 68.8197 111.56 69.3899V69.675C111.56 70.3308 111.683 70.8392 111.928 71.2004C112.174 71.5615 112.533 71.7421 113.006 71.7421Z" fill="white"/>
<path d="M117.83 65.826H119.844V66.8524C119.938 66.7003 120.056 66.553 120.198 66.4105C120.349 66.2584 120.524 66.1254 120.723 66.0113C120.921 65.8973 121.144 65.807 121.389 65.7405C121.635 65.6739 121.9 65.6407 122.184 65.6407C123.242 65.6407 124.046 65.9543 124.594 66.5815C125.143 67.2088 125.417 68.1449 125.417 69.3899V69.675C125.417 70.3213 125.341 70.8868 125.19 71.3715C125.039 71.8562 124.821 72.2601 124.538 72.5832C124.254 72.9063 123.914 73.1534 123.517 73.3245C123.12 73.4861 122.675 73.5668 122.184 73.5668C121.758 73.5668 121.352 73.4718 120.964 73.2817C120.586 73.0821 120.269 72.797 120.014 72.4264V76.2327H117.83V65.826ZM121.659 71.7564C122.094 71.7564 122.453 71.5805 122.737 71.2289C123.03 70.8773 123.176 70.3593 123.176 69.675V69.3899C123.176 68.7342 123.034 68.2495 122.751 67.9358C122.477 67.6127 122.113 67.4511 121.659 67.4511C121.196 67.4511 120.803 67.5984 120.482 67.8931C120.17 68.1782 120.014 68.6059 120.014 69.1761V69.8889C120.014 70.4876 120.17 70.9485 120.482 71.2717C120.803 71.5948 121.196 71.7564 121.659 71.7564Z" fill="white"/>
<path d="M126.555 65.826H128.682V70.3878L131.873 65.826H133.787V73.3815H131.66V68.8197L128.469 73.3815H126.555V65.826Z" fill="white"/>
<path d="M138.755 73.5668C138.198 73.5668 137.682 73.4861 137.21 73.3245C136.746 73.1629 136.345 72.9206 136.004 72.5975C135.664 72.2743 135.399 71.8704 135.21 71.3857C135.021 70.901 134.927 70.3308 134.927 69.675V69.3899C134.927 68.7912 135.026 68.259 135.224 67.7933C135.432 67.3276 135.707 66.9379 136.047 66.6243C136.397 66.3012 136.803 66.0588 137.266 65.8973C137.73 65.7262 138.226 65.6407 138.755 65.6407C139.323 65.6407 139.819 65.7167 140.244 65.8688C140.679 66.0208 141.043 66.2299 141.336 66.496C141.63 66.7526 141.856 67.0567 142.017 67.4084C142.178 67.76 142.272 68.1354 142.301 68.5346H140.06C139.984 68.1924 139.843 67.9311 139.635 67.7505C139.436 67.5604 139.143 67.4654 138.755 67.4654C138.292 67.4654 137.909 67.627 137.607 67.9501C137.314 68.2637 137.167 68.7437 137.167 69.3899V69.675C137.167 70.3783 137.309 70.8963 137.593 71.2289C137.886 71.5615 138.273 71.7279 138.755 71.7279C139.086 71.7279 139.365 71.6423 139.592 71.4712C139.829 71.2907 139.984 71.0246 140.06 70.6729H142.301C142.272 71.1196 142.168 71.5235 141.989 71.8847C141.809 72.2363 141.563 72.5357 141.251 72.7828C140.949 73.0299 140.585 73.2247 140.159 73.3673C139.743 73.5003 139.275 73.5668 138.755 73.5668Z" fill="white"/>
<path d="M145.253 67.6222H142.942V65.826H149.749V67.6222H147.437V73.3815H145.253V67.6222Z" fill="white"/>
<path d="M150.735 65.826H152.919V68.278H154.138C155.121 68.278 155.864 68.4871 156.365 68.9052C156.866 69.3234 157.116 69.9649 157.116 70.8297C157.116 71.2099 157.059 71.5568 156.946 71.8704C156.842 72.184 156.667 72.4549 156.421 72.683C156.185 72.9016 155.878 73.0726 155.5 73.1962C155.131 73.3197 154.677 73.3815 154.138 73.3815H150.735V65.826ZM153.855 71.7279C154.242 71.7279 154.516 71.6566 154.677 71.514C154.847 71.362 154.932 71.1339 154.932 70.8297C154.932 70.5161 154.847 70.288 154.677 70.1455C154.516 70.0029 154.242 69.9316 153.855 69.9316H152.919V71.7279H153.855ZM157.768 65.826H159.952V73.3815H157.768V65.826Z" fill="white"/>
<path d="M106.199 83.8691H106.993C107.192 83.5745 107.334 83.1706 107.419 82.6574C107.504 82.1346 107.546 81.4266 107.546 80.5333V78.1098H113.715V83.8691H114.566V87.4473H112.723V85.6653H108.043V87.4473H106.199V83.8691ZM111.531 83.8691V79.906H109.56V80.8184C109.56 81.5312 109.522 82.1346 109.447 82.6288C109.381 83.123 109.277 83.5365 109.135 83.8691H111.531Z" fill="white"/>
<path d="M116.048 85.8506C115.973 85.8506 115.864 85.8459 115.722 85.8364C115.59 85.8364 115.486 85.8269 115.41 85.8079V83.8976C115.458 83.9071 115.528 83.9119 115.623 83.9119C115.784 83.9119 115.926 83.8643 116.048 83.7693C116.171 83.6648 116.275 83.4984 116.36 83.2704C116.446 83.0328 116.507 82.7286 116.545 82.358C116.592 81.9778 116.616 81.5121 116.616 80.9609V78.1098H122.855V85.6653H120.672V79.906H118.658V81.246C118.658 82.1869 118.601 82.9567 118.488 83.5555C118.374 84.1542 118.209 84.6246 117.991 84.9668C117.774 85.3089 117.5 85.5418 117.169 85.6653C116.847 85.7889 116.474 85.8506 116.048 85.8506Z" fill="white"/>
<path d="M125.83 82.8712C125.262 82.6811 124.846 82.4008 124.582 82.0301C124.326 81.65 124.199 81.2128 124.199 80.7186C124.199 80.3479 124.26 80.0058 124.383 79.6922C124.515 79.369 124.714 79.0934 124.979 78.8653C125.243 78.6277 125.579 78.4424 125.986 78.3094C126.402 78.1763 126.893 78.1098 127.46 78.1098H131.148V85.6653H128.964V83.1135H127.886L126.298 85.6653H123.915L125.83 82.8712ZM126.383 80.7186C126.383 80.9847 126.477 81.1795 126.666 81.3031C126.865 81.4266 127.106 81.4884 127.389 81.4884H128.964V79.906H127.389C127.106 79.906 126.865 79.9725 126.666 80.1056C126.477 80.2386 126.383 80.443 126.383 80.7186Z" fill="white"/>
<path d="M136.323 85.8506C136.247 85.8506 136.139 85.8459 135.997 85.8364C135.865 85.8364 135.761 85.8269 135.685 85.8079V83.8976C135.732 83.9071 135.803 83.9119 135.898 83.9119C136.058 83.9119 136.2 83.8643 136.323 83.7693C136.446 83.6648 136.55 83.4984 136.635 83.2704C136.72 83.0328 136.782 82.7286 136.819 82.358C136.867 81.9778 136.89 81.5121 136.89 80.9609V78.1098H143.13V85.6653H140.946V79.906H138.932V81.246C138.932 82.1869 138.876 82.9567 138.762 83.5555C138.649 84.1542 138.483 84.6246 138.266 84.9668C138.048 85.3089 137.774 85.5418 137.443 85.6653C137.122 85.7889 136.749 85.8506 136.323 85.8506Z" fill="white"/>
<path d="M144.544 78.1098H146.728V80.9182H147.267C147.333 80.424 147.47 79.9915 147.678 79.6209C147.886 79.2502 148.146 78.9414 148.458 78.6943C148.77 78.4377 149.129 78.2476 149.536 78.124C149.943 77.991 150.382 77.9245 150.855 77.9245C151.384 77.9245 151.871 78.0052 152.316 78.1668C152.769 78.3284 153.162 78.566 153.493 78.8796C153.823 79.1932 154.079 79.5829 154.258 80.0486C154.447 80.5142 154.542 81.056 154.542 81.6737V81.9588C154.542 82.6051 154.447 83.1753 154.258 83.6695C154.079 84.1542 153.823 84.5581 153.493 84.8812C153.162 85.2044 152.769 85.4467 152.316 85.6083C151.871 85.7699 151.384 85.8506 150.855 85.8506C150.382 85.8506 149.938 85.7889 149.522 85.6653C149.115 85.5323 148.756 85.3374 148.444 85.0808C148.132 84.8242 147.872 84.5011 147.664 84.1114C147.466 83.7123 147.333 83.2466 147.267 82.7144H146.728V85.6653H144.544V78.1098ZM150.855 84.0259C151.328 84.0259 151.687 83.8406 151.933 83.4699C152.178 83.0993 152.301 82.5956 152.301 81.9588V81.6737C152.301 81.1035 152.178 80.6425 151.933 80.2909C151.687 79.9298 151.328 79.7492 150.855 79.7492C150.382 79.7492 150.023 79.9298 149.777 80.2909C149.531 80.6425 149.408 81.1035 149.408 81.6737V81.9588C149.408 82.6146 149.531 83.123 149.777 83.4842C150.023 83.8453 150.382 84.0259 150.855 84.0259Z" fill="white"/>
<path d="M155.113 83.8691H155.907C156.106 83.5745 156.248 83.1706 156.333 82.6574C156.418 82.1346 156.46 81.4266 156.46 80.5333V78.1098H162.629V83.8691H163.48V87.4473H161.636V85.6653H156.957V87.4473H155.113V83.8691ZM160.445 83.8691V79.906H158.474V80.8184C158.474 81.5312 158.436 82.1346 158.361 82.6288C158.294 83.123 158.19 83.5365 158.049 83.8691H160.445Z" fill="white"/>
<path d="M168.02 85.8506C167.471 85.8506 166.956 85.7746 166.474 85.6225C166.001 85.461 165.59 85.2186 165.24 84.8955C164.89 84.5724 164.616 84.1685 164.418 83.6838C164.219 83.1896 164.12 82.6146 164.12 81.9588V81.6737C164.12 81.0465 164.214 80.5 164.403 80.0343C164.602 79.5686 164.867 79.179 165.198 78.8653C165.538 78.5517 165.935 78.3189 166.389 78.1668C166.852 78.0052 167.348 77.9245 167.878 77.9245C169.116 77.9245 170.052 78.2476 170.686 78.8938C171.319 79.5306 171.636 80.4572 171.636 81.6737V82.4578H166.36C166.37 82.7524 166.422 83.0042 166.516 83.2133C166.611 83.4129 166.734 83.5792 166.885 83.7123C167.036 83.8453 167.207 83.9451 167.396 84.0116C167.594 84.0687 167.802 84.0972 168.02 84.0972C168.436 84.0972 168.762 84.0354 168.998 83.9119C169.244 83.7788 169.405 83.603 169.48 83.3844H171.494C171.343 84.2112 170.969 84.829 170.374 85.2376C169.778 85.6463 168.993 85.8506 168.02 85.8506ZM167.949 79.6637C167.75 79.6637 167.556 79.6874 167.367 79.7349C167.188 79.7825 167.022 79.8632 166.871 79.9773C166.729 80.0818 166.611 80.2196 166.516 80.3907C166.431 80.5618 166.384 80.7708 166.375 81.0179H169.494C169.494 80.7518 169.452 80.5333 169.367 80.3622C169.282 80.1911 169.168 80.0533 169.026 79.9488C168.894 79.8442 168.733 79.7729 168.544 79.7349C168.355 79.6874 168.157 79.6637 167.949 79.6637Z" fill="white"/>
<path d="M172.768 78.1098H174.895V82.6716L178.086 78.1098H180V85.6653H177.873V81.1035L174.682 85.6653H172.768V78.1098ZM176.384 77.3257C175.458 77.3257 174.801 77.1499 174.413 76.7983C174.025 76.4371 173.832 75.9001 173.832 75.1874H175.76C175.76 75.5105 175.812 75.7338 175.916 75.8574C176.02 75.9809 176.176 76.0427 176.384 76.0427C176.592 76.0427 176.748 75.9809 176.852 75.8574C176.956 75.7338 177.008 75.5105 177.008 75.1874H178.937C178.937 75.9001 178.743 76.4371 178.355 76.7983C177.968 77.1499 177.311 77.3257 176.384 77.3257Z" fill="white"/>
</svg>
