<svg width="1776" height="1030" viewBox="0 0 1776 1030" fill="none" xmlns="http://www.w3.org/2000/svg">
<path d="M7.6408 196.928H122.949C116.908 220.288 113.887 247.092 113.887 277.34C113.887 299.263 116.561 321.454 121.907 343.912C127.789 365.836 136.611 385.888 148.374 404.068C160.672 421.714 176.178 436.152 194.891 447.381C213.605 458.61 235.795 464.224 261.459 464.224C279.638 464.224 296.481 461.016 311.987 454.599C328.027 448.183 341.929 439.36 353.692 428.131C365.455 416.902 374.544 404.068 380.961 389.631C387.912 374.659 391.387 358.885 391.387 342.308H273.49V253.277H495.65V539.62H403.417L401.011 486.683C388.179 509.141 367.594 526.787 339.255 539.62C310.917 551.918 278.302 558.068 241.409 558.068C204.516 558.068 171.098 550.314 141.156 534.807C111.748 518.766 86.3511 497.644 64.9638 471.443C44.1112 444.707 28.0708 414.228 16.8425 380.006C5.61416 345.249 0 309.423 0 272.527C0 246.236 2.54693 221.036 7.6408 196.928Z" fill="rgba(240, 172, 135, 0.2)"/>
<path fill-rule="evenodd" clip-rule="evenodd" d="M644.989 534.807C670.119 544.967 698.724 550.047 730.805 550.047C761.282 550.047 788.818 545.234 813.414 535.609C838.544 525.45 859.664 511.28 876.773 493.099C894.418 474.919 907.785 453.263 916.874 428.131C926.499 402.464 931.311 373.857 931.311 342.308C931.311 310.76 926.499 282.152 916.874 256.486C907.785 230.819 894.418 209.163 876.773 191.517C859.664 173.337 838.811 159.434 814.216 149.809C789.62 139.649 761.817 134.57 730.805 134.57C699.259 134.57 670.921 139.649 645.791 149.809C621.196 159.434 600.076 173.337 582.431 191.517C564.787 209.698 551.152 231.621 541.528 257.288C532.438 282.954 527.894 311.295 527.894 342.308C527.894 372.787 532.438 400.86 541.528 426.527C550.618 452.193 563.717 474.117 580.827 492.297C598.472 510.478 619.859 524.648 644.989 534.807ZM826.246 342.308C826.246 422.516 794.432 462.62 730.805 462.62C667.178 462.62 635.365 422.516 635.365 342.308C635.365 262.635 667.178 222.798 730.805 222.798C794.432 222.798 826.246 262.635 826.246 342.308Z" fill="rgba(240, 172, 135, 0.2)"/>
<path fill-rule="evenodd" clip-rule="evenodd" d="M1163.15 550.047C1131.06 550.047 1102.46 544.967 1077.33 534.807C1052.2 524.648 1030.81 510.478 1013.17 492.297C996.058 474.117 982.958 452.193 973.868 426.527C964.779 400.86 960.234 372.787 960.234 342.308C960.234 311.295 964.779 282.954 973.868 257.288C983.492 231.621 997.127 209.698 1014.77 191.517C1032.42 173.337 1053.54 159.434 1078.13 149.809C1103.26 139.649 1131.6 134.57 1163.15 134.57C1194.16 134.57 1221.96 139.649 1246.56 149.809C1271.15 159.434 1292 173.337 1309.11 191.517C1326.76 209.163 1340.13 230.819 1349.21 256.486C1358.84 282.152 1363.65 310.76 1363.65 342.308C1363.65 373.857 1358.84 402.464 1349.21 428.131C1340.13 453.263 1326.76 474.919 1309.11 493.099C1292 511.28 1270.88 525.45 1245.75 535.609C1221.16 545.234 1193.62 550.047 1163.15 550.047ZM1163.15 462.62C1226.77 462.62 1258.59 422.516 1258.59 342.308C1258.59 262.635 1226.77 222.798 1163.15 222.798C1099.52 222.798 1067.7 262.635 1067.7 342.308C1067.7 422.516 1099.52 462.62 1163.15 462.62Z" fill="rgba(240, 172, 135, 0.2)"/>
<path fill-rule="evenodd" clip-rule="evenodd" d="M1674.08 491.495L1674.89 539.62H1775.14V0.622314H1672.48V196.33C1643.07 155.156 1604.04 134.57 1555.38 134.57C1529.72 134.57 1506.73 139.649 1486.41 149.809C1466.63 159.434 1449.78 173.337 1435.88 191.517C1421.98 209.698 1411.29 231.354 1403.8 256.486C1396.85 281.083 1393.38 308.354 1393.38 338.298C1393.38 371.451 1397.65 401.127 1406.21 427.329C1414.76 453.53 1426.53 475.721 1441.5 493.901C1456.47 512.082 1474.38 525.985 1495.23 535.609C1516.09 545.234 1539.08 550.047 1564.21 550.047C1613.4 550.047 1650.02 530.53 1674.08 491.495ZM1650.83 433.745C1634.25 454.599 1613.4 465.026 1588.27 465.026C1562.07 465.026 1540.68 454.065 1524.11 432.141C1507.53 409.683 1499.24 380.808 1499.24 345.517C1499.24 264.239 1529.19 223.6 1589.07 223.6C1647.35 223.6 1676.49 266.378 1676.49 351.933C1676.49 385.621 1667.94 412.891 1650.83 433.745Z" fill="rgba(240, 172, 135, 0.2)"/>
<path d="M471.589 1019.57V780.553C471.589 756.491 465.975 736.974 454.747 722.001C443.518 707.029 428.547 699.543 409.833 699.543C390.585 699.543 374.544 707.564 361.712 723.606C349.414 739.647 343.266 759.699 343.266 783.762V1019.57H239.003V782.157C239.003 766.116 237.933 753.015 235.795 742.855C233.656 732.696 229.913 724.675 224.566 718.793C219.754 712.911 213.338 708.901 205.318 706.762C197.298 704.088 187.673 702.751 176.445 702.751C134.205 702.751 113.085 728.418 113.085 779.751V1019.57H8.82225V624.95H106.669V682.699C120.036 656.498 136.076 638.585 154.79 628.96C173.504 619.335 195.961 614.523 222.16 614.523C235.527 614.523 247.29 615.592 257.449 617.731C268.143 619.87 277.5 623.613 285.52 628.96C294.075 633.773 302.095 640.189 309.581 648.21C317.066 656.231 324.552 665.856 332.037 677.085C342.731 655.161 356.9 639.387 374.544 629.762C392.189 619.603 413.576 614.523 438.706 614.523C458.489 614.523 476.669 617.998 493.244 624.95C509.819 631.366 523.988 640.724 535.751 653.023C547.514 664.786 556.604 678.689 563.02 694.731C569.971 710.772 573.446 727.883 573.446 746.064V1019.57H471.589Z" fill="rgba(240, 172, 135, 0.2)"/>
<path fill-rule="evenodd" clip-rule="evenodd" d="M854.079 984.281C855.148 997.649 857.287 1009.41 860.495 1019.57H957.54V770.126C957.54 745.529 954.599 723.606 948.717 704.356C942.836 684.571 933.212 668.262 919.844 655.429C907.012 642.061 889.635 631.901 867.713 624.95C846.326 617.998 820.126 614.523 789.115 614.523C757.569 614.523 730.835 617.998 708.913 624.95C686.991 631.366 669.079 640.724 655.177 653.023C641.81 665.321 631.918 680.026 625.502 697.137C619.621 714.248 616.413 732.963 615.878 753.282H712.923C715.596 735.637 722.012 721.467 732.171 710.772C742.865 700.078 760.242 694.731 784.303 694.731C804.621 694.731 820.661 698.474 832.424 705.96C844.722 712.911 850.871 722.803 850.871 735.637C850.871 749.539 846.326 759.699 837.236 766.116C828.147 771.998 810.502 776.81 784.303 780.553C758.103 784.296 733.775 788.574 711.319 793.386C689.397 797.664 670.416 804.616 654.375 814.241C638.335 823.866 625.77 837.234 616.68 854.345C607.59 870.921 603.046 893.379 603.046 921.719C603.046 953.802 613.472 980.004 634.324 1000.32C655.712 1020.11 689.129 1030 734.577 1030C761.311 1030 784.837 1025.99 805.155 1017.97C825.473 1009.41 841.781 998.184 854.079 984.281ZM830.018 839.105C840.177 835.897 847.93 831.619 853.277 826.272L852.475 869.584C852.475 881.348 849.801 892.577 844.454 903.271C839.642 913.431 832.959 922.521 824.404 930.542C816.384 938.028 806.492 944.177 794.729 948.99C783.501 953.268 771.203 955.407 757.836 955.407C724.151 955.407 707.309 940.702 707.309 911.292C707.309 894.181 712.923 881.081 724.151 871.99C735.379 862.9 755.965 855.414 785.907 849.532C805.155 845.789 819.859 842.313 830.018 839.105Z" fill="rgba(240, 172, 135, 0.2)"/>
<path d="M1256.16 1019.57V780.553C1256.16 750.074 1251.08 729.487 1240.92 718.793C1230.76 708.099 1213.38 702.751 1188.79 702.751C1134.78 702.751 1107.78 732.963 1107.78 793.386V1019.57H1003.52V624.95H1102.97V682.699C1115.27 660.241 1131.57 643.398 1151.89 632.168C1172.21 620.405 1198.41 614.523 1230.49 614.523C1249.2 614.523 1266.58 617.464 1282.62 623.346C1298.66 628.693 1312.3 636.981 1323.52 648.21C1335.29 659.439 1344.38 673.342 1350.79 689.918C1357.74 705.96 1361.22 724.675 1361.22 746.064V1019.57H1256.16Z" fill="rgba(240, 172, 135, 0.2)"/>
</svg>
