<svg width="18" height="15" viewBox="0 0 18 15" fill="none" xmlns="http://www.w3.org/2000/svg">
<path d="M1.8584 6.64729C6.51215 4.57767 9.61466 3.21321 11.1659 2.55389C15.6002 0.671428 16.5205 0.344486 17.1215 0.333409C17.2537 0.331245 17.548 0.364601 17.74 0.523107C17.8996 0.656786 17.9445 0.837573 17.967 0.964505C17.9869 1.09131 18.0144 1.38031 17.9919 1.60591C17.7525 4.18274 16.7125 10.4359 16.1838 13.3221C15.9618 14.5433 15.5204 14.9527 15.0939 14.9927C14.3594 15.0617 13.7656 14.6295 13.1046 14.1484C12.9307 14.0218 12.7521 13.8918 12.565 13.7667C11.8378 13.2796 11.2744 12.8879 10.7107 12.4959C10.1861 12.131 9.66124 11.766 9.00363 11.3238C7.64739 10.4115 8.2152 9.85262 8.97207 9.10774C9.09481 8.98694 9.22252 8.86125 9.3478 8.72836C9.40388 8.66873 9.68025 8.40639 10.0694 8.03701C11.3072 6.86206 13.6859 4.60412 13.7447 4.3424C13.7547 4.29936 13.7646 4.13895 13.6699 4.05441C13.5776 3.96962 13.4404 3.99865 13.3407 4.02157C13.1985 4.05416 10.9564 5.56868 6.60692 8.56489C5.97096 9.01151 5.39485 9.22921 4.87611 9.21775C4.30748 9.20528 3.21013 8.88877 2.3946 8.61836C2.27428 8.57834 2.15689 8.5406 2.04361 8.50418C1.21769 8.23862 0.609854 8.04318 0.671263 7.54765C0.706179 7.25432 1.10272 6.95411 1.8584 6.64729Z" fill="white"/>
<path d="M1.8584 6.64729C6.51215 4.57767 9.61466 3.21321 11.1659 2.55389C15.6002 0.671428 16.5205 0.344486 17.1215 0.333409C17.2537 0.331245 17.548 0.364601 17.74 0.523107C17.8996 0.656786 17.9445 0.837573 17.967 0.964505C17.9869 1.09131 18.0144 1.38031 17.9919 1.60591C17.7525 4.18274 16.7125 10.4359 16.1838 13.3221C15.9618 14.5433 15.5204 14.9527 15.0939 14.9927C14.3594 15.0617 13.7656 14.6295 13.1046 14.1484C12.9307 14.0218 12.7521 13.8918 12.565 13.7667C11.8378 13.2796 11.2744 12.8879 10.7107 12.4959C10.1861 12.131 9.66124 11.766 9.00363 11.3238C7.64739 10.4115 8.2152 9.85262 8.97207 9.10774C9.09481 8.98694 9.22252 8.86125 9.3478 8.72836C9.40388 8.66873 9.68025 8.40639 10.0694 8.03701C11.3072 6.86206 13.6859 4.60412 13.7447 4.3424C13.7547 4.29936 13.7646 4.13895 13.6699 4.05441C13.5776 3.96962 13.4404 3.99865 13.3407 4.02157C13.1985 4.05416 10.9564 5.56868 6.60692 8.56489C5.97096 9.01151 5.39485 9.22921 4.87611 9.21775C4.30748 9.20528 3.21013 8.88877 2.3946 8.61836C2.27428 8.57834 2.15689 8.5406 2.04361 8.50418C1.21769 8.23862 0.609854 8.04318 0.671263 7.54765C0.706179 7.25432 1.10272 6.95411 1.8584 6.64729Z" stroke="white"/>
</svg>
