<svg width="18" height="10" viewBox="0 0 18 10" fill="none" xmlns="http://www.w3.org/2000/svg">
<path d="M7.80308 0.0377655C8.40712 0.0315078 8.99792 0.098477 9.28615 0.106779C10.3546 0.137535 10.5433 0.677926 10.5296 1.12241C10.5096 1.77337 10.0908 4.52703 10.8669 4.79558C11.9977 4.19088 12.756 2.31275 13.3083 1.12241C13.5876 0.520308 13.5435 0.490388 14.1872 0.489588L16.7445 0.485677C17.3603 0.484912 17.3363 0.463312 17.5336 0.71485C17.9924 1.29988 16.0856 3.73341 15.4697 4.40626C14.3332 5.64799 14.9963 6.12884 15.1794 6.29949C16.0275 7.0903 16.8471 7.91035 17.3565 8.66667C17.7614 9.26795 17.5942 9.82777 17.0791 9.84897L14.3369 9.96224C13.4269 9.99965 12.012 8.36843 11.7862 8.01302C11.6035 7.71986 10.7232 7.35245 10.6403 8.10153L10.5244 9.1471C10.4403 9.89449 9.88841 9.87705 9.45282 9.89577C6.43838 10.0255 5.41056 8.8786 3.89316 7.18542L3.8903 7.18223C2.77704 5.60783 1.71465 4.02438 0.834317 2.12754C0.570815 1.55976 0.431241 1.14324 0.395508 0.701766C0.838459 0.355561 2.39325 0.504681 3.43718 0.481712C3.72271 0.475419 3.91536 0.639028 4.06608 0.964788C4.65419 2.23613 5.29558 3.48459 6.14422 4.58848C6.5138 4.92889 6.84052 5.05407 7.0036 4.36194C7.09828 4.35323 7.09067 3.20703 7.09604 2.34239C7.09972 1.74872 7.02998 1.03677 6.02443 0.708272C6.22783 0.175134 7.02648 0.0458189 7.80308 0.0377655Z" fill="white"/>
</svg>
